<?xml version="1.0" encoding="UTF-8"?>
<svg data-bbox="20 20 160 160" viewBox="0 0 200 200" height="200" width="200" xmlns="http://www.w3.org/2000/svg" data-type="color">
    <g>
        <path d="M172.5 160H105a2.5 2.5 0 1 1 0-5h67.5c1.379 0 2.5-1.122 2.5-2.5v-75c0-1.378-1.121-2.5-2.5-2.5h-50a2.5 2.5 0 1 1 0-5h50c4.136 0 7.5 3.365 7.5 7.5v75c0 4.135-3.364 7.5-7.5 7.5z" fill="#01016C" data-color="1"/>
        <path d="M167.5 150H105a2.5 2.5 0 1 1 0-5h60V85h-47.5a2.5 2.5 0 1 1 0-5h50a2.5 2.5 0 0 1 2.5 2.5v65a2.5 2.5 0 0 1-2.5 2.5z" fill="#01016C" data-color="1"/>
        <path d="M127.5 180a2.5 2.5 0 0 1-2.5-2.5v-20a2.5 2.5 0 1 1 5 0v20a2.5 2.5 0 0 1-2.5 2.5z" fill="#01016C" data-color="1"/>
        <path d="M135 180h-30a2.5 2.5 0 1 1 0-5h30a2.5 2.5 0 1 1 0 5z" fill="#01016C" data-color="1"/>
        <path d="M90 180h-2.5a2.5 2.5 0 1 1 0-5H90c1.379 0 2.5-1.122 2.5-2.5v-60c0-1.378-1.121-2.5-2.5-2.5H47.5a2.503 2.503 0 0 0-2.5 2.5v25a2.5 2.5 0 1 1-5 0v-25c0-4.135 3.364-7.5 7.5-7.5H90c4.136 0 7.5 3.365 7.5 7.5v60c0 4.135-3.364 7.5-7.5 7.5z" fill="#01016C" data-color="1"/>
        <path d="M85 140a2.5 2.5 0 0 1-2.5-2.5v-15H55v15a2.5 2.5 0 1 1-5 0V120a2.5 2.5 0 0 1 2.5-2.5H85a2.5 2.5 0 0 1 2.5 2.5v17.5A2.5 2.5 0 0 1 85 140z" fill="#01016C" data-color="1"/>
        <path d="M75 180H27.5c-4.136 0-7.5-3.365-7.5-7.5v-20c0-4.135 3.364-7.5 7.5-7.5H75c4.136 0 7.5 3.365 7.5 7.5v20c0 4.135-3.364 7.5-7.5 7.5zm-47.5-30a2.503 2.503 0 0 0-2.5 2.5v20c0 1.378 1.121 2.5 2.5 2.5H75c1.379 0 2.5-1.122 2.5-2.5v-20c0-1.378-1.121-2.5-2.5-2.5H27.5z" fill="#01016C" data-color="1"/>
        <path d="M85 85c-9.368 0-16.714-2.462-20.259-3.93C61.103 79.564 55 76.447 55 72.5v-20a2.5 2.5 0 1 1 5 0v19.799C61.089 74.268 71.454 80 85 80s23.911-5.732 25-7.701V52.5a2.5 2.5 0 1 1 5 0v20c0 3.947-6.103 7.064-9.741 8.57C101.714 82.538 94.368 85 85 85zm25.045-12.791zm-50.09 0z" fill="#01016C" data-color="1"/>
        <path d="M85 65c-.33 0-.66-.065-.97-.196l-47.5-20a2.5 2.5 0 0 1 0-4.608l47.5-20a2.501 2.501 0 0 1 1.94 0l47.355 19.944A2.5 2.5 0 0 1 135 42.5v.005a2.499 2.499 0 0 1-1.675 2.36L85.97 64.804A2.49 2.49 0 0 1 85 65zM43.942 42.5 85 59.787l41.052-17.285L85 25.213 43.942 42.5z" fill="#01016C" data-color="1"/>
        <path d="M42.502 92.501a2.501 2.501 0 0 1-1.12-4.736C43.783 86.563 45 84.792 45 82.5v-35a2.5 2.5 0 1 1 5 0v35c0 4.221-2.266 7.678-6.382 9.736-.359.179-.74.265-1.116.265z" fill="#01016C" data-color="1"/>
        <path fill="#01016C" d="M50 97.5a2.5 2.5 0 1 1-5 0 2.5 2.5 0 0 1 5 0z" data-color="1"/>
        <path d="M57.5 100a2.5 2.5 0 0 1-2.5-2.5V85a2.5 2.5 0 1 1 5 0v12.5a2.5 2.5 0 0 1-2.5 2.5z" fill="#01016C" data-color="1"/>
        <path fill="#01016C" d="M35 162.5a2.5 2.5 0 1 1-5 0 2.5 2.5 0 0 1 5 0z" data-color="1"/>
    </g>
</svg>
