<?xml version="1.0" encoding="UTF-8"?>
<svg data-bbox="40.668 37.069 118.663 125.862" xmlns="http://www.w3.org/2000/svg" width="200" height="200" viewBox="0 0 200 200" data-type="color">
    <g>
        <path fill="#000010" d="M109.503 161.667c-4.878 0-9.435-1.38-13.299-3.772a25.187 25.187 0 01-13.299 3.772H67.237c-13.974 0-25.304-11.329-25.304-25.304V71.231c0-13.975 11.33-25.304 25.304-25.304h15.667c4.878 0 9.435 1.38 13.299 3.772a25.187 25.187 0 0113.299-3.772h15.669c13.974 0 25.304 11.329 25.304 25.304v65.132c0 13.975-11.33 25.304-25.304 25.304h-15.668z" data-color="1"/>
        <path fill="#000010" d="M125.172 162.931h-15.669a26.51 26.51 0 01-13.299-3.561 26.51 26.51 0 01-13.299 3.561H67.237c-14.651 0-26.569-11.918-26.569-26.569V71.229c0-14.651 11.918-26.569 26.569-26.569h15.667c4.688 0 9.269 1.231 13.299 3.563a26.526 26.526 0 0113.299-3.563h15.669c14.651 0 26.569 11.918 26.569 26.569v65.132c.001 14.652-11.917 26.57-26.568 26.57zm-28.969-6.301c.23 0 .462.064.665.19a23.986 23.986 0 0012.635 3.581h15.669c13.255 0 24.039-10.784 24.039-24.039V71.229c0-13.255-10.784-24.039-24.039-24.039h-15.669a24 24 0 00-12.635 3.583 1.263 1.263 0 01-1.329 0 23.998 23.998 0 00-12.635-3.583H67.237c-13.255 0-24.039 10.784-24.039 24.039v65.132c0 13.255 10.784 24.039 24.039 24.039h15.667c4.48 0 8.849-1.238 12.635-3.581.202-.125.434-.189.664-.189z" data-color="1"/>
        <path fill="#C2BDFF" d="M117.094 154.076c-4.878 0-9.435-1.38-13.299-3.772a25.187 25.187 0 01-13.299 3.772H74.828c-13.974 0-25.304-11.329-25.304-25.304V63.639c0-13.975 11.33-25.304 25.304-25.304h15.667c4.878 0 9.435 1.38 13.299 3.772a25.187 25.187 0 0113.299-3.772h15.669c13.974 0 25.304 11.329 25.304 25.304v65.132c0 13.975-11.33 25.304-25.304 25.304h-15.668z" data-color="2"/>
        <path fill="#000010" d="M132.763 155.34h-15.669a26.51 26.51 0 01-13.299-3.561 26.51 26.51 0 01-13.299 3.561H74.828c-14.651 0-26.569-11.918-26.569-26.569V63.638c0-14.651 11.918-26.569 26.569-26.569h15.667c4.688 0 9.269 1.231 13.299 3.563a26.526 26.526 0 0113.299-3.563h15.669c14.651 0 26.569 11.918 26.569 26.569v65.132c.001 14.652-11.917 26.57-26.568 26.57zm-28.969-6.302c.23 0 .462.064.665.19a23.986 23.986 0 0012.635 3.581h15.669c13.255 0 24.039-10.784 24.039-24.039V63.638c0-13.255-10.784-24.039-24.039-24.039h-15.669a24 24 0 00-12.635 3.583 1.263 1.263 0 01-1.329 0A24.009 24.009 0 0090.495 39.6H74.828c-13.255 0-24.039 10.784-24.039 24.039v65.132c0 13.255 10.784 24.039 24.039 24.039h15.667c4.48 0 8.849-1.238 12.635-3.581.202-.126.435-.191.664-.191z" data-color="1"/>
        <path d="M117.093 88.964H90.494V63.639H74.828v65.133h15.666v-26.69h26.599v26.69h15.669V63.639h-15.669v25.325z" fill="#BAFFC9" data-color="3"/>
        <path fill="#000010" d="M132.763 130.036h-15.669a1.265 1.265 0 01-1.265-1.265v-25.422H91.76v25.422c0 .699-.566 1.265-1.265 1.265H74.828a1.265 1.265 0 01-1.265-1.265V63.638c0-.699.566-1.265 1.265-1.265h15.667c.699 0 1.265.566 1.265 1.265v24.061h24.068V63.638c0-.699.566-1.265 1.265-1.265h15.669c.699 0 1.265.566 1.265 1.265v65.132c.001.7-.565 1.266-1.264 1.266zm-14.404-2.531h13.139V64.903h-13.139v24.061c0 .699-.566 1.265-1.265 1.265H90.495a1.265 1.265 0 01-1.265-1.265V64.903H76.094v62.602H89.23v-25.422c0-.699.566-1.265 1.265-1.265h26.599c.699 0 1.265.566 1.265 1.265v25.422z" data-color="1"/>
        <path fill="#000010" d="M62.177 86.525a1.265 1.265 0 01-1.265-1.265v-3.909a1.265 1.265 0 112.53 0v3.909c0 .699-.566 1.265-1.265 1.265z" data-color="1"/>
        <path fill="#000010" d="M62.177 92.261c-.699 0-1.265-.487-1.265-1.186v-.161a1.265 1.265 0 112.53 0c0 .699-.566 1.347-1.265 1.347z" data-color="1"/>
        <path fill="#000010" d="M62.177 108.491a1.265 1.265 0 01-1.265-1.265V96.363a1.265 1.265 0 112.53 0v10.863c0 .699-.566 1.265-1.265 1.265z" data-color="1"/>
        <path fill="#000010" d="M62.177 130.036a1.265 1.265 0 01-1.265-1.265v-15.489a1.265 1.265 0 112.53 0v15.489c0 .699-.566 1.265-1.265 1.265z" data-color="1"/>
        <path fill="#000010" d="M90.495 142.688H74.828c-4.878 0-9.316-2.486-11.869-6.647a1.264 1.264 0 112.155-1.325 11.322 11.322 0 009.714 5.441h15.667a1.265 1.265 0 110 2.531z" data-color="1"/>
    </g>
</svg>
