<?xml version="1.0" encoding="UTF-8"?>
<svg data-bbox="19.999 42 160.001 116" viewBox="0 0 200 200" height="200" width="200" xmlns="http://www.w3.org/2000/svg" data-type="color">
    <g>
        <path d="M180 144.155c.037-2.894-2.178-5.273-5.041-5.415-3.514-.176-8.897-.23-12.904-.244.142-.425.242-.867.248-1.335l1.113-85.826c.03-2.314-.859-4.517-2.503-6.203-1.719-1.762-4.144-2.793-6.674-2.84l-.152-.002L48.776 42c-5.19-.015-9.465 4.003-9.529 8.958l-1.114 85.825a4.412 4.412 0 0 0 .257 1.5c-4.39.173-9.905.485-13.524.85-2.681.27-4.728 2.531-4.762 5.257L20 152.557a5.341 5.341 0 0 0 1.52 3.82 5.236 5.236 0 0 0 3.681 1.598l.07.001c21.12.119 128.63-.234 149.395-.491 2.896-.035 5.194-2.356 5.231-5.283l.103-8.047zm-138.318-6.446a1.237 1.237 0 0 1-.365-.884L42.432 51c.041-3.203 2.883-5.799 6.335-5.788l105.31.29c.035-.001.07 0 .104.001 1.701.032 3.321.714 4.459 1.88 1.044 1.071 1.608 2.458 1.589 3.909l-1.113 85.826c-.01.761-.723 1.377-1.589 1.375h-.012l-37.941-.105a1.553 1.553 0 0 0-.981-.003l-74.544-.206c-.066-.01-.123-.041-.191-.042l-.036-.001c-.321.001-.702.006-1.108.014-.387-.043-.77-.172-1.032-.441zm74.155 3.882c-2.022 2.108-4.849 3.731-8.13 4.598-4.423 1.172-9.158.96-13.206.6-2.57-.229-5.525-.571-8.081-1.738-1.866-.853-3.338-2.102-4.25-3.553l33.667.093zm58.789 12.684c-20.758.256-128.225.608-149.338.489-.617.004-1.099-.23-1.496-.638a2.142 2.142 0 0 1-.608-1.53l.105-8.167c.014-1.09.828-1.993 1.895-2.101 4.687-.473 13.103-.878 17.389-.962.061.004.119.02.18.021l.077.001 35.786.099c1.062 2.727 3.376 5.065 6.489 6.488 3.012 1.375 6.284 1.76 9.115 2.012a69.9 69.9 0 0 0 4.94.289c3.028.056 6.228-.154 9.354-.981 4.897-1.293 8.969-4.076 11.382-7.693l37.622.104.006-.001.004.001c2.745-.009 12.101-.014 17.271.24a2.125 2.125 0 0 1 2.015 2.167l-.103 8.047c-.013 1.171-.93 2.1-2.085 2.115zM47.684 131.518c.788.809 1.906 1.28 3.079 1.302l.072.001h.001l98.817.237c2.364.004 4.31-1.791 4.341-4.001l.975-70.03c.028-1.909-.718-3.739-2.098-5.154-1.559-1.599-3.824-2.519-6.158-2.525l-90.737-.218c-4.591-.009-8.373 3.4-8.431 7.603l-.975 70.028a3.853 3.853 0 0 0 1.114 2.757zm8.286-77.175 90.737.218c.032-.001.066 0 .098.001 1.471.027 2.851.595 3.797 1.565.778.798 1.199 1.812 1.183 2.855l-.975 70.031c-.006.445-.544.834-1.15.833l-98.816-.237c-.385.002-.677-.126-.888-.343a.63.63 0 0 1-.202-.459l.975-70.03c.034-2.451 2.385-4.441 5.241-4.434zm7.038 25.25c.099.002.204.003.312.002l74.293-.553c2.373-.02 3.595-.703 3.633-2.027l.43-13.212a1.948 1.948 0 0 0-.565-1.421c-1.154-1.195-4.3-1.351-6.077-1.338l-68.218.508c-4.384.033-6.636.951-6.694 2.73l-.43 13.211c-.014.438.194.961.497 1.274.193.2.761.788 2.819.826zm.272-14.433c.619-.174 1.83-.382 3.559-.394l68.218-.508c1.619-.011 2.779.157 3.407.311l-.365 11.24a7.45 7.45 0 0 1-.51.022l-74.291.553h-.001a6.608 6.608 0 0 1-.381-.006l.364-11.218zm43.9 45.807.264-21.322a4.36 4.36 0 0 0-1.248-3.114 4.436 4.436 0 0 0-3.116-1.34l-.073-.001-38.748-.118c-2.461-.007-4.485 1.967-4.515 4.401l-.405 32.752a2.715 2.715 0 0 0 .774 1.937c.508.52 1.184.811 1.912.825l.045.001 42.196.127a2.762 2.762 0 0 0 2.772-2.716l.13-10.495c.105-.31.097-.629.012-.937zM64.25 88.283l38.748.118h.022c.349.007.67.142.907.383.217.224.335.514.332.821l-.227 18.375-7.943-6.491a1.582 1.582 0 0 0-2.108.092l-8.943 8.706-8.714-7.762a1.581 1.581 0 0 0-1.922-.142l-11.729 7.702.254-20.575c.009-.678.603-1.229 1.323-1.227zm-1.719 33.493.097-7.826 12.499-8.208 7.616 6.782-5.105 4.97a1.614 1.614 0 0 0-.039 2.27 1.58 1.58 0 0 0 2.251.039l15.332-14.926 8.801 7.193-.122 9.828-41.33-.122zm23.936-20.965c.204.03.407.048.61.051.997.019 1.971-.281 2.739-.856 1.932-1.446 2.37-4.427.935-6.377-1.436-1.949-4.389-2.389-6.323-.942-.922.691-1.554 1.783-1.732 2.998-.179 1.215.112 2.446.797 3.376.685.932 1.769 1.569 2.974 1.75zm-.14-5.545v-.001c.208-.155.488-.227.773-.222.425.008.863.186 1.094.5.386.527.244 1.495-.276 1.885-.522.391-1.481.247-1.869-.279-.182-.248-.259-.62-.205-.993.057-.374.237-.707.483-.89zm29.06 5.425a1.88 1.88 0 0 1-.537-1.36l.225-10.719c.029-1.402 1.371-2.499 3.054-2.497l19.358.01c.927.019 1.781.331 2.343.911.444.458.681 1.045.669 1.654l-.226 10.727c-.02 1.09-.979 1.946-2.182 1.942l-21.078-.011-.049-.001c-.609-.012-1.182-.25-1.577-.656zm23.992 7.048c-.568-.583-1.414-.921-2.27-.919l-19.359-.029c-1.687-.001-3.027 1.182-3.053 2.694l-.216 12.962a1.98 1.98 0 0 0 .569 1.426c.397.409.961.648 1.553.659l.039.001 21.081.031c1.203.004 2.162-.886 2.183-2.026l.216-12.965a2.555 2.555 0 0 0-.743-1.834zm-21.694 13.582.19-11.318 19.055.039-.188 11.308-19.057-.029z" fill="#58BF55" data-color="1"/>
    </g>
</svg>
